<mxfile host="app.diagrams.net" modified="2023-10-03T19:19:30.855Z" agent="Mozilla/5.0 (X11; Linux x86_64) AppleWebKit/537.36 (KHTML, like Gecko) Chrome/115.0.0.0 Safari/537.36" etag="-E3qK9dX1I8CmpcAsBQm" version="22.0.2" type="google">
  <diagram name="PÃ¡gina-1" id="pX2ojJ9UzgL9YClalF3T">
    <mxGraphModel dx="1136" dy="604" grid="1" gridSize="10" guides="1" tooltips="1" connect="1" arrows="1" fold="1" page="1" pageScale="1" pageWidth="827" pageHeight="1169" math="0" shadow="0">
      <root>
        <mxCell id="0" />
        <mxCell id="1" parent="0" />
        <mxCell id="OpMGkdyiwefpl-xBXnwD-5" value="" style="edgeStyle=orthogonalEdgeStyle;rounded=0;orthogonalLoop=1;jettySize=auto;html=1;" parent="1" source="OpMGkdyiwefpl-xBXnwD-3" target="OpMGkdyiwefpl-xBXnwD-4" edge="1">
          <mxGeometry relative="1" as="geometry" />
        </mxCell>
        <mxCell id="OpMGkdyiwefpl-xBXnwD-3" value="" style="ellipse;whiteSpace=wrap;html=1;aspect=fixed;" parent="1" vertex="1">
          <mxGeometry x="320" y="70" width="40" height="40" as="geometry" />
        </mxCell>
        <mxCell id="__22R-i1V6m4cSYKJytB-2" value="" style="edgeStyle=orthogonalEdgeStyle;rounded=0;orthogonalLoop=1;jettySize=auto;html=1;" parent="1" source="OpMGkdyiwefpl-xBXnwD-4" target="__22R-i1V6m4cSYKJytB-1" edge="1">
          <mxGeometry relative="1" as="geometry" />
        </mxCell>
        <mxCell id="__22R-i1V6m4cSYKJytB-3" value="Read NFC tag" style="edgeLabel;html=1;align=center;verticalAlign=middle;resizable=0;points=[];" parent="__22R-i1V6m4cSYKJytB-2" connectable="0" vertex="1">
          <mxGeometry x="-0.3277" relative="1" as="geometry">
            <mxPoint y="7" as="offset" />
          </mxGeometry>
        </mxCell>
        <mxCell id="OpMGkdyiwefpl-xBXnwD-4" value="Waiting for child" style="rounded=1;whiteSpace=wrap;html=1;" parent="1" vertex="1">
          <mxGeometry x="280" y="170" width="120" height="60" as="geometry" />
        </mxCell>
        <mxCell id="OpMGkdyiwefpl-xBXnwD-14" value="" style="edgeStyle=orthogonalEdgeStyle;rounded=0;orthogonalLoop=1;jettySize=auto;html=1;entryX=0;entryY=0.5;entryDx=0;entryDy=0;" parent="1" source="OpMGkdyiwefpl-xBXnwD-8" target="__22R-i1V6m4cSYKJytB-8" edge="1">
          <mxGeometry relative="1" as="geometry">
            <mxPoint x="340" y="590" as="targetPoint" />
          </mxGeometry>
        </mxCell>
        <mxCell id="OpMGkdyiwefpl-xBXnwD-15" value="Child chooses wrong&lt;br&gt;&amp;nbsp;password / wrong_attempts++;" style="edgeLabel;html=1;align=center;verticalAlign=middle;resizable=0;points=[];" parent="OpMGkdyiwefpl-xBXnwD-14" connectable="0" vertex="1">
          <mxGeometry x="-0.0828" y="3" relative="1" as="geometry">
            <mxPoint x="7" y="-17" as="offset" />
          </mxGeometry>
        </mxCell>
        <mxCell id="__22R-i1V6m4cSYKJytB-15" value="" style="edgeStyle=orthogonalEdgeStyle;rounded=0;orthogonalLoop=1;jettySize=auto;html=1;" parent="1" source="OpMGkdyiwefpl-xBXnwD-8" target="OpMGkdyiwefpl-xBXnwD-13" edge="1">
          <mxGeometry relative="1" as="geometry" />
        </mxCell>
        <mxCell id="__22R-i1V6m4cSYKJytB-16" value="Child chooses &lt;br&gt;correct password" style="edgeLabel;html=1;align=center;verticalAlign=middle;resizable=0;points=[];" parent="__22R-i1V6m4cSYKJytB-15" connectable="0" vertex="1">
          <mxGeometry x="-0.2503" y="-3" relative="1" as="geometry">
            <mxPoint x="3" y="9" as="offset" />
          </mxGeometry>
        </mxCell>
        <mxCell id="OpMGkdyiwefpl-xBXnwD-8" value="Authenticating" style="rounded=1;whiteSpace=wrap;html=1;" parent="1" vertex="1">
          <mxGeometry x="280" y="390" width="120" height="60" as="geometry" />
        </mxCell>
        <mxCell id="OpMGkdyiwefpl-xBXnwD-17" value="" style="edgeStyle=orthogonalEdgeStyle;rounded=0;orthogonalLoop=1;jettySize=auto;html=1;" parent="1" source="OpMGkdyiwefpl-xBXnwD-13" target="OpMGkdyiwefpl-xBXnwD-16" edge="1">
          <mxGeometry relative="1" as="geometry" />
        </mxCell>
        <mxCell id="OpMGkdyiwefpl-xBXnwD-18" value="Child selects a product&lt;br&gt;[product_price &amp;lt;= budget]&amp;nbsp;" style="edgeLabel;html=1;align=center;verticalAlign=middle;resizable=0;points=[];" parent="OpMGkdyiwefpl-xBXnwD-17" connectable="0" vertex="1">
          <mxGeometry x="-0.0724" y="2" relative="1" as="geometry">
            <mxPoint x="-2" as="offset" />
          </mxGeometry>
        </mxCell>
        <mxCell id="__22R-i1V6m4cSYKJytB-24" style="edgeStyle=orthogonalEdgeStyle;rounded=0;orthogonalLoop=1;jettySize=auto;html=1;entryX=0;entryY=0.5;entryDx=0;entryDy=0;" parent="1" source="OpMGkdyiwefpl-xBXnwD-13" target="OpMGkdyiwefpl-xBXnwD-4" edge="1">
          <mxGeometry relative="1" as="geometry">
            <Array as="points">
              <mxPoint x="210" y="590" />
              <mxPoint x="210" y="200" />
            </Array>
          </mxGeometry>
        </mxCell>
        <mxCell id="__22R-i1V6m4cSYKJytB-25" value="Child presses&lt;br&gt;&amp;nbsp;exit button" style="edgeLabel;html=1;align=center;verticalAlign=middle;resizable=0;points=[];" parent="__22R-i1V6m4cSYKJytB-24" connectable="0" vertex="1">
          <mxGeometry x="0.1241" y="-1" relative="1" as="geometry">
            <mxPoint as="offset" />
          </mxGeometry>
        </mxCell>
        <mxCell id="OpMGkdyiwefpl-xBXnwD-13" value="Waiting for selection" style="rounded=1;whiteSpace=wrap;html=1;" parent="1" vertex="1">
          <mxGeometry x="280" y="560" width="120" height="60" as="geometry" />
        </mxCell>
        <mxCell id="OpMGkdyiwefpl-xBXnwD-23" value="" style="edgeStyle=orthogonalEdgeStyle;rounded=0;orthogonalLoop=1;jettySize=auto;html=1;" parent="1" source="OpMGkdyiwefpl-xBXnwD-16" target="OpMGkdyiwefpl-xBXnwD-22" edge="1">
          <mxGeometry relative="1" as="geometry" />
        </mxCell>
        <mxCell id="OpMGkdyiwefpl-xBXnwD-24" value="Child presses&lt;br style=&quot;border-color: var(--border-color);&quot;&gt;confirmation button" style="edgeLabel;html=1;align=center;verticalAlign=middle;resizable=0;points=[];" parent="OpMGkdyiwefpl-xBXnwD-23" connectable="0" vertex="1">
          <mxGeometry x="-0.3447" y="2" relative="1" as="geometry">
            <mxPoint x="-2" y="7" as="offset" />
          </mxGeometry>
        </mxCell>
        <mxCell id="OpMGkdyiwefpl-xBXnwD-16" value="Waiting for confirmation" style="rounded=1;whiteSpace=wrap;html=1;" parent="1" vertex="1">
          <mxGeometry x="280" y="695" width="120" height="60" as="geometry" />
        </mxCell>
        <mxCell id="__22R-i1V6m4cSYKJytB-31" style="edgeStyle=orthogonalEdgeStyle;rounded=0;orthogonalLoop=1;jettySize=auto;html=1;" parent="1" source="OpMGkdyiwefpl-xBXnwD-22" target="__22R-i1V6m4cSYKJytB-20" edge="1">
          <mxGeometry relative="1" as="geometry" />
        </mxCell>
        <mxCell id="__22R-i1V6m4cSYKJytB-35" value="[error == true]" style="edgeLabel;html=1;align=center;verticalAlign=middle;resizable=0;points=[];" parent="__22R-i1V6m4cSYKJytB-31" connectable="0" vertex="1">
          <mxGeometry x="-0.8885" y="-2" relative="1" as="geometry">
            <mxPoint y="-12" as="offset" />
          </mxGeometry>
        </mxCell>
        <mxCell id="__22R-i1V6m4cSYKJytB-34" style="edgeStyle=orthogonalEdgeStyle;rounded=0;orthogonalLoop=1;jettySize=auto;html=1;entryX=-0.002;entryY=0.346;entryDx=0;entryDy=0;entryPerimeter=0;" parent="1" source="OpMGkdyiwefpl-xBXnwD-22" target="OpMGkdyiwefpl-xBXnwD-4" edge="1">
          <mxGeometry relative="1" as="geometry">
            <Array as="points">
              <mxPoint x="130" y="850" />
              <mxPoint x="130" y="190" />
              <mxPoint x="280" y="190" />
            </Array>
          </mxGeometry>
        </mxCell>
        <mxCell id="__22R-i1V6m4cSYKJytB-36" value="[else]" style="edgeLabel;html=1;align=center;verticalAlign=middle;resizable=0;points=[];" parent="__22R-i1V6m4cSYKJytB-34" connectable="0" vertex="1">
          <mxGeometry x="-0.874" y="-1" relative="1" as="geometry">
            <mxPoint y="-9" as="offset" />
          </mxGeometry>
        </mxCell>
        <mxCell id="OpMGkdyiwefpl-xBXnwD-22" value="Providing product" style="rounded=1;whiteSpace=wrap;html=1;" parent="1" vertex="1">
          <mxGeometry x="280" y="820" width="120" height="60" as="geometry" />
        </mxCell>
        <mxCell id="__22R-i1V6m4cSYKJytB-4" style="edgeStyle=orthogonalEdgeStyle;rounded=0;orthogonalLoop=1;jettySize=auto;html=1;entryX=1;entryY=0.5;entryDx=0;entryDy=0;" parent="1" source="__22R-i1V6m4cSYKJytB-1" target="OpMGkdyiwefpl-xBXnwD-4" edge="1">
          <mxGeometry relative="1" as="geometry">
            <Array as="points">
              <mxPoint x="450" y="320" />
              <mxPoint x="450" y="200" />
            </Array>
          </mxGeometry>
        </mxCell>
        <mxCell id="__22R-i1V6m4cSYKJytB-5" value="tag is not valid&lt;br&gt;&amp;nbsp;or is blocked" style="edgeLabel;html=1;align=center;verticalAlign=middle;resizable=0;points=[];" parent="__22R-i1V6m4cSYKJytB-4" connectable="0" vertex="1">
          <mxGeometry x="0.069" y="-4" relative="1" as="geometry">
            <mxPoint as="offset" />
          </mxGeometry>
        </mxCell>
        <mxCell id="__22R-i1V6m4cSYKJytB-6" value="" style="edgeStyle=orthogonalEdgeStyle;rounded=0;orthogonalLoop=1;jettySize=auto;html=1;" parent="1" source="__22R-i1V6m4cSYKJytB-1" target="OpMGkdyiwefpl-xBXnwD-8" edge="1">
          <mxGeometry relative="1" as="geometry" />
        </mxCell>
        <mxCell id="__22R-i1V6m4cSYKJytB-7" value="Tag is valid / wrong_attempts = 0;" style="edgeLabel;html=1;align=center;verticalAlign=middle;resizable=0;points=[];" parent="__22R-i1V6m4cSYKJytB-6" connectable="0" vertex="1">
          <mxGeometry x="-0.2487" y="-1" relative="1" as="geometry">
            <mxPoint as="offset" />
          </mxGeometry>
        </mxCell>
        <mxCell id="__22R-i1V6m4cSYKJytB-1" value="" style="rhombus;whiteSpace=wrap;html=1;" parent="1" vertex="1">
          <mxGeometry x="320" y="300" width="40" height="40" as="geometry" />
        </mxCell>
        <mxCell id="__22R-i1V6m4cSYKJytB-10" value="" style="edgeStyle=orthogonalEdgeStyle;rounded=0;orthogonalLoop=1;jettySize=auto;html=1;entryX=0;entryY=0.5;entryDx=0;entryDy=0;" parent="1" source="__22R-i1V6m4cSYKJytB-8" target="__22R-i1V6m4cSYKJytB-20" edge="1">
          <mxGeometry relative="1" as="geometry">
            <mxPoint x="760" y="420" as="targetPoint" />
          </mxGeometry>
        </mxCell>
        <mxCell id="__22R-i1V6m4cSYKJytB-11" value="[wrong_attempts &amp;gt;= 2] / blocked = 1" style="edgeLabel;html=1;align=center;verticalAlign=middle;resizable=0;points=[];" parent="__22R-i1V6m4cSYKJytB-10" connectable="0" vertex="1">
          <mxGeometry x="-0.1749" y="4" relative="1" as="geometry">
            <mxPoint x="4" y="-6" as="offset" />
          </mxGeometry>
        </mxCell>
        <mxCell id="__22R-i1V6m4cSYKJytB-12" style="edgeStyle=orthogonalEdgeStyle;rounded=0;orthogonalLoop=1;jettySize=auto;html=1;entryX=0.75;entryY=1;entryDx=0;entryDy=0;" parent="1" source="__22R-i1V6m4cSYKJytB-8" target="OpMGkdyiwefpl-xBXnwD-8" edge="1">
          <mxGeometry relative="1" as="geometry">
            <mxPoint x="430" y="450" as="targetPoint" />
            <Array as="points">
              <mxPoint x="580" y="480" />
              <mxPoint x="370" y="480" />
            </Array>
          </mxGeometry>
        </mxCell>
        <mxCell id="__22R-i1V6m4cSYKJytB-13" value="[else]" style="edgeLabel;html=1;align=center;verticalAlign=middle;resizable=0;points=[];" parent="__22R-i1V6m4cSYKJytB-12" connectable="0" vertex="1">
          <mxGeometry x="-0.1621" y="-1" relative="1" as="geometry">
            <mxPoint x="47" y="-9" as="offset" />
          </mxGeometry>
        </mxCell>
        <mxCell id="__22R-i1V6m4cSYKJytB-8" value="" style="rhombus;whiteSpace=wrap;html=1;" parent="1" vertex="1">
          <mxGeometry x="560" y="400" width="40" height="40" as="geometry" />
        </mxCell>
        <mxCell id="__22R-i1V6m4cSYKJytB-17" value="Vending Machine System" style="shape=umlFrame;whiteSpace=wrap;html=1;pointerEvents=0;width=190;height=30;" parent="1" vertex="1">
          <mxGeometry x="70" y="10" width="880" height="900" as="geometry" />
        </mxCell>
        <mxCell id="__22R-i1V6m4cSYKJytB-20" value="Handling error" style="rounded=1;whiteSpace=wrap;html=1;" parent="1" vertex="1">
          <mxGeometry x="790" y="390" width="120" height="60" as="geometry" />
        </mxCell>
        <mxCell id="__22R-i1V6m4cSYKJytB-22" style="edgeStyle=orthogonalEdgeStyle;rounded=0;orthogonalLoop=1;jettySize=auto;html=1;entryX=0.995;entryY=0.323;entryDx=0;entryDy=0;entryPerimeter=0;" parent="1" source="__22R-i1V6m4cSYKJytB-20" target="OpMGkdyiwefpl-xBXnwD-4" edge="1">
          <mxGeometry relative="1" as="geometry">
            <Array as="points">
              <mxPoint x="850" y="189" />
              <mxPoint x="595" y="189" />
            </Array>
          </mxGeometry>
        </mxCell>
        <mxCell id="__22R-i1V6m4cSYKJytB-23" value="Child presses&lt;br&gt;exit button" style="edgeLabel;html=1;align=center;verticalAlign=middle;resizable=0;points=[];" parent="__22R-i1V6m4cSYKJytB-22" connectable="0" vertex="1">
          <mxGeometry x="-0.7562" y="-3" relative="1" as="geometry">
            <mxPoint as="offset" />
          </mxGeometry>
        </mxCell>
        <mxCell id="__22R-i1V6m4cSYKJytB-29" style="edgeStyle=orthogonalEdgeStyle;rounded=0;orthogonalLoop=1;jettySize=auto;html=1;entryX=1.003;entryY=0.462;entryDx=0;entryDy=0;entryPerimeter=0;" parent="1" source="OpMGkdyiwefpl-xBXnwD-16" target="OpMGkdyiwefpl-xBXnwD-13" edge="1">
          <mxGeometry relative="1" as="geometry">
            <Array as="points">
              <mxPoint x="470" y="725" />
              <mxPoint x="470" y="588" />
            </Array>
          </mxGeometry>
        </mxCell>
        <mxCell id="__22R-i1V6m4cSYKJytB-30" value="Child presses&lt;br&gt;go back button" style="edgeLabel;html=1;align=center;verticalAlign=middle;resizable=0;points=[];" parent="__22R-i1V6m4cSYKJytB-29" connectable="0" vertex="1">
          <mxGeometry x="0.1359" y="-1" relative="1" as="geometry">
            <mxPoint as="offset" />
          </mxGeometry>
        </mxCell>
      </root>
    </mxGraphModel>
  </diagram>
</mxfile>
